STARTFONT 2.1
FONT -Adobe-Utopia-Bold-I-Normal--10-100-75-75-P-58-ISO8859-2
SIZE 10 75 75
FONTBOUNDINGBOX 15 11 -2 -2
STARTPROPERTIES 29
FOUNDRY "Adobe"
FAMILY_NAME "Utopia"
WEIGHT_NAME "Bold"
SLANT "I"
SETWIDTH_NAME "Normal"
ADD_STYLE_NAME ""
PIXEL_SIZE 10
POINT_SIZE 100
RESOLUTION_X 75
RESOLUTION_Y 75
SPACING "P"
AVERAGE_WIDTH 58
CHARSET_REGISTRY "ISO8859"
CHARSET_ENCODING "2"
CAP_HEIGHT 7
X_HEIGHT 5
RELATIVE_SETWIDTH 50
RELATIVE_WEIGHT 70
WEIGHT 208
FACE_NAME "Utopia Bold Italic"
COPYRIGHT "Copyright (c) 1989, 1991 Adobe Systems Incorporated.  All rights reserved., Copyright 1996 Cub Soft"
NOTICE "Utopia is a registered trademark of Adobe Systems Incorporated."
DESTINATION 0
FONT_ASCENT 9
FONT_DESCENT 2
DEFAULT_CHAR 32
_ADOBE_PSFONT "Utopia-BoldItalic"
_ADOBE_XFONT "-Adobe-Utopia-Bold-I-Normal--10-100-75-75-P-58-ISO8859-2"
_DEC_DEVICE_FONTNAMES "PS=Utopia-BoldItalic"
ENDPROPERTIES
CHARS 191
STARTCHAR space
ENCODING 32
SWIDTH 210 0
DWIDTH 2 0
BBX 0 0 0 0
BITMAP
ENDCHAR
STARTCHAR exclam
ENCODING 33
SWIDTH 285 0
DWIDTH 3 0
BBX 3 7 0 0
BITMAP
60
60
40
40
00
c0
c0
ENDCHAR
STARTCHAR quotedbl
ENCODING 34
SWIDTH 455 0
DWIDTH 5 0
BBX 3 3 1 4
BITMAP
a0
a0
a0
ENDCHAR
STARTCHAR numbersign
ENCODING 35
SWIDTH 560 0
DWIDTH 6 0
BBX 6 7 0 0
BITMAP
28
7c
28
50
f8
50
50
ENDCHAR
STARTCHAR dollar
ENCODING 36
SWIDTH 560 0
DWIDTH 6 0
BBX 6 9 0 -1
BITMAP
10
38
6c
60
30
18
d8
70
20
ENDCHAR
STARTCHAR percent
ENCODING 37
SWIDTH 896 0
DWIDTH 9 0
BBX 8 7 1 0
BITMAP
62
bc
a4
cb
15
15
26
ENDCHAR
STARTCHAR ampersand
ENCODING 38
SWIDTH 752 0
DWIDTH 8 0
BBX 8 7 0 0
BITMAP
38
64
28
73
da
cc
76
ENDCHAR
STARTCHAR apostrophe
ENCODING 39
SWIDTH 246 0
DWIDTH 3 0
BBX 3 3 0 4
BITMAP
60
40
80
ENDCHAR
STARTCHAR parenleft
ENCODING 40
SWIDTH 350 0
DWIDTH 4 0
BBX 4 10 0 -2
BITMAP
10
20
40
40
80
80
80
80
80
40
ENDCHAR
STARTCHAR parenright
ENCODING 41
SWIDTH 350 0
DWIDTH 4 0
BBX 4 10 -1 -2
BITMAP
20
10
10
10
10
10
20
20
40
80
ENDCHAR
STARTCHAR asterisk
ENCODING 42
SWIDTH 500 0
DWIDTH 5 0
BBX 5 5 0 2
BITMAP
20
a8
70
a8
20
ENDCHAR
STARTCHAR plus
ENCODING 43
SWIDTH 600 0
DWIDTH 6 0
BBX 5 5 0 0
BITMAP
20
20
f8
20
20
ENDCHAR
STARTCHAR comma
ENCODING 44
SWIDTH 280 0
DWIDTH 3 0
BBX 3 3 -1 -1
BITMAP
60
40
80
ENDCHAR
STARTCHAR minus
ENCODING 45
SWIDTH 600 0
DWIDTH 6 0
BBX 5 1 0 2
BITMAP
f8
ENDCHAR
STARTCHAR period
ENCODING 46
SWIDTH 280 0
DWIDTH 3 0
BBX 2 2 0 0
BITMAP
c0
c0
ENDCHAR
STARTCHAR slash
ENCODING 47
SWIDTH 260 0
DWIDTH 4 0
BBX 3 7 0 0
BITMAP
20
20
40
40
40
80
80
ENDCHAR
STARTCHAR zero
ENCODING 48
SWIDTH 560 0
DWIDTH 6 0
BBX 6 7 0 0
BITMAP
38
6c
4c
cc
c8
d8
70
ENDCHAR
STARTCHAR one
ENCODING 49
SWIDTH 560 0
DWIDTH 6 0
BBX 4 7 1 0
BITMAP
70
30
30
60
60
60
f0
ENDCHAR
STARTCHAR two
ENCODING 50
SWIDTH 560 0
DWIDTH 6 0
BBX 6 7 0 0
BITMAP
38
6c
0c
18
60
c8
f8
ENDCHAR
STARTCHAR three
ENCODING 51
SWIDTH 560 0
DWIDTH 6 0
BBX 6 7 0 0
BITMAP
38
6c
0c
38
18
d8
70
ENDCHAR
STARTCHAR four
ENCODING 52
SWIDTH 560 0
DWIDTH 6 0
BBX 6 7 0 0
BITMAP
18
38
58
98
fc
30
78
ENDCHAR
STARTCHAR five
ENCODING 53
SWIDTH 560 0
DWIDTH 6 0
BBX 5 7 0 0
BITMAP
78
40
70
18
18
d8
70
ENDCHAR
STARTCHAR six
ENCODING 54
SWIDTH 560 0
DWIDTH 6 0
BBX 6 7 0 0
BITMAP
38
6c
40
f0
d8
d8
70
ENDCHAR
STARTCHAR seven
ENCODING 55
SWIDTH 560 0
DWIDTH 6 0
BBX 5 7 1 0
BITMAP
f8
98
30
20
60
c0
c0
ENDCHAR
STARTCHAR eight
ENCODING 56
SWIDTH 560 0
DWIDTH 6 0
BBX 6 7 0 0
BITMAP
38
6c
6c
30
d8
d8
70
ENDCHAR
STARTCHAR nine
ENCODING 57
SWIDTH 560 0
DWIDTH 6 0
BBX 6 7 0 0
BITMAP
38
6c
6c
3c
08
d8
70
ENDCHAR
STARTCHAR colon
ENCODING 58
SWIDTH 280 0
DWIDTH 3 0
BBX 3 5 0 0
BITMAP
60
60
00
c0
c0
ENDCHAR
STARTCHAR semicolon
ENCODING 59
SWIDTH 280 0
DWIDTH 3 0
BBX 4 6 -1 -1
BITMAP
30
30
00
60
40
80
ENDCHAR
STARTCHAR less
ENCODING 60
SWIDTH 600 0
DWIDTH 6 0
BBX 5 5 0 0
BITMAP
08
30
c0
30
08
ENDCHAR
STARTCHAR equal
ENCODING 61
SWIDTH 600 0
DWIDTH 6 0
BBX 5 3 0 1
BITMAP
f8
00
f8
ENDCHAR
STARTCHAR greater
ENCODING 62
SWIDTH 600 0
DWIDTH 6 0
BBX 5 5 0 0
BITMAP
80
60
18
60
80
ENDCHAR
STARTCHAR question
ENCODING 63
SWIDTH 454 0
DWIDTH 5 0
BBX 5 7 0 0
BITMAP
70
18
30
60
00
c0
c0
ENDCHAR
STARTCHAR at
ENCODING 64
SWIDTH 828 0
DWIDTH 9 0
BBX 8 7 0 0
BITMAP
3c
42
9d
a9
be
40
3c
ENDCHAR
STARTCHAR A
ENCODING 65
SWIDTH 634 0
DWIDTH 7 0
BBX 8 7 -1 0
BITMAP
0c
0c
1c
26
3e
46
ef
ENDCHAR
STARTCHAR B
ENCODING 66
SWIDTH 680 0
DWIDTH 7 0
BBX 7 7 -1 0
BITMAP
7e
32
36
3c
66
66
fc
ENDCHAR
STARTCHAR C
ENCODING 67
SWIDTH 672 0
DWIDTH 7 0
BBX 7 7 0 0
BITMAP
3c
66
e0
c0
c0
c4
78
ENDCHAR
STARTCHAR D
ENCODING 68
SWIDTH 774 0
DWIDTH 8 0
BBX 8 7 -1 0
BITMAP
7e
33
33
63
67
66
fc
ENDCHAR
STARTCHAR E
ENCODING 69
SWIDTH 622 0
DWIDTH 6 0
BBX 7 7 -1 0
BITMAP
7e
32
34
7c
60
64
fc
ENDCHAR
STARTCHAR F
ENCODING 70
SWIDTH 585 0
DWIDTH 6 0
BBX 7 7 -1 0
BITMAP
7e
32
34
7c
64
60
f0
ENDCHAR
STARTCHAR G
ENCODING 71
SWIDTH 726 0
DWIDTH 8 0
BBX 7 7 0 0
BITMAP
3c
66
e0
c0
de
cc
78
ENDCHAR
STARTCHAR H
ENCODING 72
SWIDTH 800 0
DWIDTH 8 0
BBX 9 7 -1 0
BITMAP
7b80
3300
3300
7e00
6600
6600
ef00
ENDCHAR
STARTCHAR I
ENCODING 73
SWIDTH 386 0
DWIDTH 4 0
BBX 5 7 -1 0
BITMAP
78
30
30
60
60
60
f0
ENDCHAR
STARTCHAR J
ENCODING 74
SWIDTH 388 0
DWIDTH 4 0
BBX 6 9 -2 -2
BITMAP
3c
18
18
18
30
30
30
60
c0
ENDCHAR
STARTCHAR K
ENCODING 75
SWIDTH 688 0
DWIDTH 8 0
BBX 9 7 -1 0
BITMAP
7b80
3200
3400
7c00
6e00
6600
f700
ENDCHAR
STARTCHAR L
ENCODING 76
SWIDTH 586 0
DWIDTH 6 0
BBX 6 7 -1 0
BITMAP
78
30
30
60
60
64
fc
ENDCHAR
STARTCHAR M
ENCODING 77
SWIDTH 921 0
DWIDTH 10 0
BBX 11 7 -1 0
BITMAP
70e0
31c0
32c0
3a80
4d80
4980
ebc0
ENDCHAR
STARTCHAR N
ENCODING 78
SWIDTH 741 0
DWIDTH 8 0
BBX 9 7 -1 0
BITMAP
7380
3100
3900
3a00
4e00
4e00
e600
ENDCHAR
STARTCHAR O
ENCODING 79
SWIDTH 761 0
DWIDTH 8 0
BBX 7 7 0 0
BITMAP
3c
66
e6
c6
ce
cc
78
ENDCHAR
STARTCHAR P
ENCODING 80
SWIDTH 660 0
DWIDTH 7 0
BBX 8 7 -1 0
BITMAP
7e
33
33
3e
60
60
f0
ENDCHAR
STARTCHAR Q
ENCODING 81
SWIDTH 761 0
DWIDTH 8 0
BBX 7 9 0 -2
BITMAP
3c
66
e6
c6
ce
cc
78
18
0e
ENDCHAR
STARTCHAR R
ENCODING 82
SWIDTH 681 0
DWIDTH 7 0
BBX 8 7 -1 0
BITMAP
7e
32
36
3c
6c
66
f7
ENDCHAR
STARTCHAR S
ENCODING 83
SWIDTH 551 0
DWIDTH 6 0
BBX 7 7 -1 0
BITMAP
1e
32
38
18
1c
cc
78
ENDCHAR
STARTCHAR T
ENCODING 84
SWIDTH 616 0
DWIDTH 6 0
BBX 6 7 0 0
BITMAP
fc
b4
30
60
60
60
f0
ENDCHAR
STARTCHAR U
ENCODING 85
SWIDTH 776 0
DWIDTH 8 0
BBX 8 7 0 0
BITMAP
f7
66
66
cc
cc
cc
78
ENDCHAR
STARTCHAR V
ENCODING 86
SWIDTH 630 0
DWIDTH 7 0
BBX 8 7 -1 0
BITMAP
f7
62
64
64
38
30
30
ENDCHAR
STARTCHAR W
ENCODING 87
SWIDTH 920 0
DWIDTH 10 0
BBX 11 7 -1 0
BITMAP
f6e0
6640
6640
6a80
3b80
3300
3300
ENDCHAR
STARTCHAR X
ENCODING 88
SWIDTH 630 0
DWIDTH 7 0
BBX 8 7 -1 0
BITMAP
77
32
34
18
2c
4c
ee
ENDCHAR
STARTCHAR Y
ENCODING 89
SWIDTH 622 0
DWIDTH 7 0
BBX 7 7 0 0
BITMAP
ee
64
68
70
20
60
f0
ENDCHAR
STARTCHAR Z
ENCODING 90
SWIDTH 618 0
DWIDTH 7 0
BBX 6 7 0 0
BITMAP
7c
4c
18
30
60
c8
f8
ENDCHAR
STARTCHAR bracketleft
ENCODING 91
SWIDTH 350 0
DWIDTH 4 0
BBX 4 10 0 -2
BITMAP
30
20
20
40
40
40
40
80
80
c0
ENDCHAR
STARTCHAR backslash
ENCODING 92
SWIDTH 460 0
DWIDTH 5 0
BBX 3 7 1 0
BITMAP
80
80
40
40
40
20
20
ENDCHAR
STARTCHAR bracketright
ENCODING 93
SWIDTH 350 0
DWIDTH 4 0
BBX 4 10 -1 -2
BITMAP
30
10
10
20
20
20
20
40
40
c0
ENDCHAR
STARTCHAR asciicircum
ENCODING 94
SWIDTH 600 0
DWIDTH 6 0
BBX 5 5 0 2
BITMAP
20
20
50
50
88
ENDCHAR
STARTCHAR underscore
ENCODING 95
SWIDTH 500 0
DWIDTH 5 0
BBX 5 1 0 -2
BITMAP
f8
ENDCHAR
STARTCHAR grave
ENCODING 96
SWIDTH 400 0
DWIDTH 4 0
BBX 3 2 0 6
BITMAP
c0
60
ENDCHAR
STARTCHAR a
ENCODING 97
SWIDTH 596 0
DWIDTH 6 0
BBX 6 5 0 0
BITMAP
3c
4c
d8
d8
fc
ENDCHAR
STARTCHAR b
ENCODING 98
SWIDTH 586 0
DWIDTH 6 0
BBX 6 8 0 0
BITMAP
70
30
60
7c
6c
ec
c8
f0
ENDCHAR
STARTCHAR c
ENCODING 99
SWIDTH 456 0
DWIDTH 5 0
BBX 5 5 0 0
BITMAP
38
48
c0
c0
f0
ENDCHAR
STARTCHAR d
ENCODING 100
SWIDTH 609 0
DWIDTH 6 0
BBX 7 8 0 0
BITMAP
0e
06
0c
3c
4c
d8
d8
fc
ENDCHAR
STARTCHAR e
ENCODING 101
SWIDTH 476 0
DWIDTH 5 0
BBX 5 5 0 0
BITMAP
30
58
f0
c0
f0
ENDCHAR
STARTCHAR f
ENCODING 102
SWIDTH 348 0
DWIDTH 4 0
BBX 7 10 -2 -2
BITMAP
0e
1a
18
3c
18
30
30
30
b0
e0
ENDCHAR
STARTCHAR g
ENCODING 103
SWIDTH 522 0
DWIDTH 6 0
BBX 7 7 -1 -2
BITMAP
3e
6c
6c
30
5c
cc
78
ENDCHAR
STARTCHAR h
ENCODING 104
SWIDTH 629 0
DWIDTH 7 0
BBX 6 8 0 0
BITMAP
70
30
60
7c
6c
6c
d8
dc
ENDCHAR
STARTCHAR i
ENCODING 105
SWIDTH 339 0
DWIDTH 3 0
BBX 3 8 0 0
BITMAP
60
60
00
e0
60
c0
c0
c0
ENDCHAR
STARTCHAR j
ENCODING 106
SWIDTH 333 0
DWIDTH 3 0
BBX 5 10 -2 -2
BITMAP
18
18
00
38
18
18
30
30
b0
e0
ENDCHAR
STARTCHAR k
ENCODING 107
SWIDTH 570 0
DWIDTH 6 0
BBX 5 8 0 0
BITMAP
70
30
60
68
78
70
d8
d8
ENDCHAR
STARTCHAR l
ENCODING 108
SWIDTH 327 0
DWIDTH 3 0
BBX 4 8 0 0
BITMAP
70
30
60
60
60
c0
c0
c0
ENDCHAR
STARTCHAR m
ENCODING 109
SWIDTH 914 0
DWIDTH 10 0
BBX 9 5 0 0
BITMAP
ff80
6d80
6d80
db00
db80
ENDCHAR
STARTCHAR n
ENCODING 110
SWIDTH 635 0
DWIDTH 7 0
BBX 6 5 0 0
BITMAP
f8
6c
6c
d8
dc
ENDCHAR
STARTCHAR o
ENCODING 111
SWIDTH 562 0
DWIDTH 6 0
BBX 5 5 0 0
BITMAP
38
58
d8
d0
e0
ENDCHAR
STARTCHAR p
ENCODING 112
SWIDTH 606 0
DWIDTH 6 0
BBX 7 7 -1 -2
BITMAP
7e
36
76
64
78
c0
c0
ENDCHAR
STARTCHAR q
ENCODING 113
SWIDTH 584 0
DWIDTH 6 0
BBX 6 7 0 -2
BITMAP
3c
4c
d8
d8
f8
30
30
ENDCHAR
STARTCHAR r
ENCODING 114
SWIDTH 440 0
DWIDTH 5 0
BBX 5 5 0 0
BITMAP
e8
78
60
c0
c0
ENDCHAR
STARTCHAR s
ENCODING 115
SWIDTH 417 0
DWIDTH 4 0
BBX 5 5 -1 0
BITMAP
38
60
70
30
e0
ENDCHAR
STARTCHAR t
ENCODING 116
SWIDTH 359 0
DWIDTH 4 0
BBX 4 7 0 0
BITMAP
20
60
f0
60
c0
c0
e0
ENDCHAR
STARTCHAR u
ENCODING 117
SWIDTH 634 0
DWIDTH 7 0
BBX 6 5 0 0
BITMAP
ec
6c
d8
d8
fc
ENDCHAR
STARTCHAR v
ENCODING 118
SWIDTH 518 0
DWIDTH 5 0
BBX 6 5 0 0
BITMAP
ec
6c
c8
d0
e0
ENDCHAR
STARTCHAR w
ENCODING 119
SWIDTH 795 0
DWIDTH 8 0
BBX 9 5 0 0
BITMAP
ed80
6d80
d900
da00
ec00
ENDCHAR
STARTCHAR x
ENCODING 120
SWIDTH 516 0
DWIDTH 5 0
BBX 6 5 -1 0
BITMAP
6c
38
30
70
d8
ENDCHAR
STARTCHAR y
ENCODING 121
SWIDTH 489 0
DWIDTH 5 0
BBX 7 7 -2 -2
BITMAP
36
36
34
38
30
a0
c0
ENDCHAR
STARTCHAR z
ENCODING 122
SWIDTH 466 0
DWIDTH 5 0
BBX 5 5 0 0
BITMAP
78
30
60
d0
f0
ENDCHAR
STARTCHAR braceleft
ENCODING 123
SWIDTH 340 0
DWIDTH 4 0
BBX 4 10 0 -2
BITMAP
10
20
20
20
c0
40
40
80
80
40
ENDCHAR
STARTCHAR bar
ENCODING 124
SWIDTH 265 0
DWIDTH 3 0
BBX 1 7 1 0
BITMAP
80
80
80
80
80
80
80
ENDCHAR
STARTCHAR braceright
ENCODING 125
SWIDTH 340 0
DWIDTH 4 0
BBX 4 10 -1 -2
BITMAP
20
10
10
20
20
30
40
40
40
80
ENDCHAR
STARTCHAR asciitilde
ENCODING 126
SWIDTH 600 0
DWIDTH 6 0
BBX 5 2 0 2
BITMAP
68
b0
ENDCHAR
STARTCHAR nobreakspace
ENCODING 160
SWIDTH 210 0
DWIDTH 2 0
BBX 0 0 0 0
BITMAP
ENDCHAR
STARTCHAR Aogonek
ENCODING 161
SWIDTH 634 0
DWIDTH 7 0
BBX 8 9 -1 -2
BITMAP
0c
0c
1c
26
3e
46
ef
10
18
ENDCHAR
STARTCHAR breve
ENCODING 162
SWIDTH 400 0
DWIDTH 4 0
BBX 4 2 0 6
BITMAP
90
e0
ENDCHAR
STARTCHAR Lstroke
ENCODING 163
SWIDTH 592 0
DWIDTH 6 0
BBX 6 7 -1 0
BITMAP
78
30
38
e0
60
64
fc
ENDCHAR
STARTCHAR currency
ENCODING 164
SWIDTH 560 0
DWIDTH 6 0
BBX 5 7 0 0
BITMAP
88
70
d8
88
d8
70
88
ENDCHAR
STARTCHAR Lcaron
ENCODING 165
SWIDTH 864 0
DWIDTH 9 0
BBX 9 8 -1 0
BITMAP
0180
7900
3200
3000
6000
6000
6400
fc00
ENDCHAR
STARTCHAR Sacute
ENCODING 166
SWIDTH 551 0
DWIDTH 6 0
BBX 7 10 -1 0
BITMAP
06
0c
00
1e
32
38
18
1c
cc
78
ENDCHAR
STARTCHAR section
ENCODING 167
SWIDTH 568 0
DWIDTH 6 0
BBX 5 9 0 -2
BITMAP
38
48
a0
90
48
28
10
90
e0
ENDCHAR
STARTCHAR diaeresis
ENCODING 168
SWIDTH 400 0
DWIDTH 4 0
BBX 3 2 0 6
BITMAP
a0
a0
ENDCHAR
STARTCHAR Scaron
ENCODING 169
SWIDTH 551 0
DWIDTH 6 0
BBX 7 10 -1 0
BITMAP
1a
0c
00
1e
32
38
18
1c
cc
78
ENDCHAR
STARTCHAR Scedilla
ENCODING 170
SWIDTH 551 0
DWIDTH 6 0
BBX 7 9 -1 -2
BITMAP
1e
32
38
18
1c
cc
78
08
18
ENDCHAR
STARTCHAR Tcaron
ENCODING 171
SWIDTH 616 0
DWIDTH 6 0
BBX 6 10 0 0
BITMAP
68
30
00
fc
b4
30
60
60
60
f0
ENDCHAR
STARTCHAR Zacute
ENCODING 172
SWIDTH 618 0
DWIDTH 7 0
BBX 6 10 0 0
BITMAP
0c
18
00
7c
4c
18
30
60
c8
f8
ENDCHAR
STARTCHAR hyphen
ENCODING 173
SWIDTH 392 0
DWIDTH 4 0
BBX 3 1 0 2
BITMAP
e0
ENDCHAR
STARTCHAR Zcaron
ENCODING 174
SWIDTH 618 0
DWIDTH 7 0
BBX 6 10 0 0
BITMAP
34
18
00
7c
4c
18
30
60
c8
f8
ENDCHAR
STARTCHAR Zabovedot
ENCODING 175
SWIDTH 618 0
DWIDTH 7 0
BBX 6 10 0 0
BITMAP
10
10
00
7c
4c
18
30
60
c8
f8
ENDCHAR
STARTCHAR degree
ENCODING 176
SWIDTH 375 0
DWIDTH 4 0
BBX 3 4 1 3
BITMAP
40
a0
a0
40
ENDCHAR
STARTCHAR aogonek
ENCODING 177
SWIDTH 596 0
DWIDTH 6 0
BBX 6 7 0 -2
BITMAP
3c
4c
d8
d8
fc
20
30
ENDCHAR
STARTCHAR ogonek
ENCODING 178
SWIDTH 350 0
DWIDTH 4 0
BBX 2 2 0 -2
BITMAP
80
c0
ENDCHAR
STARTCHAR lstroke
ENCODING 179
SWIDTH 339 0
DWIDTH 3 0
BBX 4 8 0 0
BITMAP
70
30
60
f0
60
c0
c0
c0
ENDCHAR
STARTCHAR acute
ENCODING 180
SWIDTH 400 0
DWIDTH 4 0
BBX 3 2 0 6
BITMAP
60
c0
ENDCHAR
STARTCHAR lcaron
ENCODING 181
SWIDTH 672 0
DWIDTH 7 0
BBX 8 9 0 0
BITMAP
03
72
34
60
60
60
c0
c0
c0
ENDCHAR
STARTCHAR sacute
ENCODING 182
SWIDTH 417 0
DWIDTH 4 0
BBX 5 8 -1 0
BITMAP
18
30
00
38
60
70
30
e0
ENDCHAR
STARTCHAR caron
ENCODING 183
SWIDTH 400 0
DWIDTH 4 0
BBX 4 2 0 6
BITMAP
d0
60
ENDCHAR
STARTCHAR cedilla
ENCODING 184
SWIDTH 400 0
DWIDTH 4 0
BBX 2 2 0 -2
BITMAP
40
c0
ENDCHAR
STARTCHAR scaron
ENCODING 185
SWIDTH 417 0
DWIDTH 4 0
BBX 5 8 -1 0
BITMAP
68
30
00
38
60
70
30
e0
ENDCHAR
STARTCHAR scedilla
ENCODING 186
SWIDTH 417 0
DWIDTH 4 0
BBX 5 7 -1 -2
BITMAP
38
60
70
30
e0
10
30
ENDCHAR
STARTCHAR tcaron
ENCODING 187
SWIDTH 672 0
DWIDTH 7 0
BBX 7 9 0 0
BITMAP
06
04
28
60
f0
60
c0
c0
e0
ENDCHAR
STARTCHAR zacute
ENCODING 188
SWIDTH 466 0
DWIDTH 5 0
BBX 5 8 0 0
BITMAP
18
30
00
78
30
60
d0
f0
ENDCHAR
STARTCHAR doubleacute
ENCODING 189
SWIDTH 400 0
DWIDTH 4 0
BBX 4 2 0 6
BITMAP
50
a0
ENDCHAR
STARTCHAR zcaron
ENCODING 190
SWIDTH 466 0
DWIDTH 5 0
BBX 5 8 0 0
BITMAP
68
30
00
78
30
60
d0
f0
ENDCHAR
STARTCHAR zabovedot
ENCODING 191
SWIDTH 466 0
DWIDTH 5 0
BBX 5 8 0 0
BITMAP
20
20
00
78
30
60
d0
f0
ENDCHAR
STARTCHAR Racute
ENCODING 192
SWIDTH 681 0
DWIDTH 7 0
BBX 8 10 -1 0
BITMAP
0c
18
00
7e
32
36
3c
6c
66
f7
ENDCHAR
STARTCHAR Aacute
ENCODING 193
SWIDTH 634 0
DWIDTH 7 0
BBX 8 9 -1 0
BITMAP
06
0c
00
0c
1c
24
3e
46
ef
ENDCHAR
STARTCHAR Acircumflex
ENCODING 194
SWIDTH 634 0
DWIDTH 7 0
BBX 8 9 -1 0
BITMAP
0c
16
00
0c
1c
24
3e
46
ef
ENDCHAR
STARTCHAR Abreve
ENCODING 195
SWIDTH 634 0
DWIDTH 7 0
BBX 8 10 -1 0
BITMAP
12
1c
00
0c
0c
1c
26
3e
46
ef
ENDCHAR
STARTCHAR Adiaeresis
ENCODING 196
SWIDTH 634 0
DWIDTH 7 0
BBX 8 9 -1 0
BITMAP
0a
0a
00
0c
1c
24
3e
46
ef
ENDCHAR
STARTCHAR Lacute
ENCODING 197
SWIDTH 586 0
DWIDTH 6 0
BBX 6 10 -1 0
BITMAP
18
30
00
78
30
30
60
60
64
fc
ENDCHAR
STARTCHAR Cacute
ENCODING 198
SWIDTH 672 0
DWIDTH 7 0
BBX 7 10 0 0
BITMAP
0c
18
00
3c
66
e0
c0
c0
c4
78
ENDCHAR
STARTCHAR Ccedilla
ENCODING 199
SWIDTH 672 0
DWIDTH 7 0
BBX 7 9 0 -2
BITMAP
3c
66
e0
c0
c0
c4
78
20
60
ENDCHAR
STARTCHAR Ccaron
ENCODING 200
SWIDTH 672 0
DWIDTH 7 0
BBX 7 10 0 0
BITMAP
34
18
00
3c
66
e0
c0
c0
c4
78
ENDCHAR
STARTCHAR Eacute
ENCODING 201
SWIDTH 622 0
DWIDTH 6 0
BBX 7 9 -1 0
BITMAP
06
0c
00
7e
32
38
60
64
fc
ENDCHAR
STARTCHAR Eogonek
ENCODING 202
SWIDTH 622 0
DWIDTH 6 0
BBX 7 9 -1 -2
BITMAP
7e
32
34
7c
60
64
fc
10
18
ENDCHAR
STARTCHAR Ediaeresis
ENCODING 203
SWIDTH 622 0
DWIDTH 6 0
BBX 7 9 -1 0
BITMAP
14
14
00
7e
32
38
60
64
fc
ENDCHAR
STARTCHAR Ecaron
ENCODING 204
SWIDTH 622 0
DWIDTH 6 0
BBX 7 10 -1 0
BITMAP
34
18
00
7e
32
34
7c
60
64
fc
ENDCHAR
STARTCHAR Iacute
ENCODING 205
SWIDTH 386 0
DWIDTH 4 0
BBX 5 9 -1 0
BITMAP
18
30
00
78
30
30
60
60
f0
ENDCHAR
STARTCHAR Icircumflex
ENCODING 206
SWIDTH 386 0
DWIDTH 4 0
BBX 6 9 -1 0
BITMAP
18
2c
00
78
30
30
60
60
f0
ENDCHAR
STARTCHAR Dcaron
ENCODING 207
SWIDTH 774 0
DWIDTH 8 0
BBX 8 10 -1 0
BITMAP
1a
0c
00
7e
33
33
63
67
66
fc
ENDCHAR
STARTCHAR Dstroke
ENCODING 208
SWIDTH 780 0
DWIDTH 8 0
BBX 8 7 -1 0
BITMAP
7e
33
33
fb
67
66
fc
ENDCHAR
STARTCHAR Nacute
ENCODING 209
SWIDTH 741 0
DWIDTH 8 0
BBX 9 10 -1 0
BITMAP
0600
0c00
0000
7380
3100
3900
3a00
4e00
4e00
e600
ENDCHAR
STARTCHAR Ncaron
ENCODING 210
SWIDTH 741 0
DWIDTH 8 0
BBX 9 10 -1 0
BITMAP
1a00
0c00
0000
7380
3100
3900
3a00
4e00
4e00
e600
ENDCHAR
STARTCHAR Oacute
ENCODING 211
SWIDTH 761 0
DWIDTH 8 0
BBX 7 9 0 0
BITMAP
06
0c
00
3c
66
c6
c6
cc
78
ENDCHAR
STARTCHAR Ocircumflex
ENCODING 212
SWIDTH 761 0
DWIDTH 8 0
BBX 7 9 0 0
BITMAP
18
2c
00
3c
66
c6
c6
cc
78
ENDCHAR
STARTCHAR Odoubleacute
ENCODING 213
SWIDTH 761 0
DWIDTH 8 0
BBX 7 10 0 0
BITMAP
14
28
00
3c
66
e6
c6
ce
cc
78
ENDCHAR
STARTCHAR Odiaeresis
ENCODING 214
SWIDTH 761 0
DWIDTH 8 0
BBX 7 9 0 0
BITMAP
14
14
00
3c
66
c6
c6
cc
78
ENDCHAR
STARTCHAR multiply
ENCODING 215
SWIDTH 600 0
DWIDTH 6 0
BBX 5 5 0 0
BITMAP
88
50
20
50
88
ENDCHAR
STARTCHAR Rcaron
ENCODING 216
SWIDTH 681 0
DWIDTH 7 0
BBX 8 10 -1 0
BITMAP
34
18
00
7e
32
36
3c
6c
66
f7
ENDCHAR
STARTCHAR Uring
ENCODING 217
SWIDTH 776 0
DWIDTH 8 0
BBX 8 11 0 0
BITMAP
10
28
10
00
f7
66
66
cc
cc
cc
78
ENDCHAR
STARTCHAR Uacute
ENCODING 218
SWIDTH 776 0
DWIDTH 8 0
BBX 8 9 0 0
BITMAP
0c
18
00
f7
66
66
cc
cc
78
ENDCHAR
STARTCHAR Udoubleacute
ENCODING 219
SWIDTH 776 0
DWIDTH 8 0
BBX 8 10 0 0
BITMAP
14
28
00
f7
66
66
cc
cc
cc
78
ENDCHAR
STARTCHAR Udiaeresis
ENCODING 220
SWIDTH 776 0
DWIDTH 8 0
BBX 8 9 0 0
BITMAP
14
14
00
f7
66
66
cc
cc
78
ENDCHAR
STARTCHAR Yacute
ENCODING 221
SWIDTH 622 0
DWIDTH 7 0
BBX 7 9 0 0
BITMAP
0c
18
00
ee
64
68
30
60
f0
ENDCHAR
STARTCHAR Tcedilla
ENCODING 222
SWIDTH 616 0
DWIDTH 6 0
BBX 6 9 0 -2
BITMAP
fc
b4
30
60
60
60
f0
10
30
ENDCHAR
STARTCHAR ssharp
ENCODING 223
SWIDTH 628 0
DWIDTH 7 0
BBX 9 10 -2 -2
BITMAP
0f00
1980
1980
3a00
1b00
3300
3300
3600
b000
e000
ENDCHAR
STARTCHAR racute
ENCODING 224
SWIDTH 440 0
DWIDTH 5 0
BBX 5 8 0 0
BITMAP
18
30
00
e8
78
60
c0
c0
ENDCHAR
STARTCHAR aacute
ENCODING 225
SWIDTH 596 0
DWIDTH 6 0
BBX 6 8 0 0
BITMAP
0c
18
00
3c
4c
d8
d8
fc
ENDCHAR
STARTCHAR acircumflex
ENCODING 226
SWIDTH 596 0
DWIDTH 6 0
BBX 6 8 0 0
BITMAP
18
2c
00
3c
4c
d8
d8
fc
ENDCHAR
STARTCHAR abreve
ENCODING 227
SWIDTH 596 0
DWIDTH 6 0
BBX 6 8 0 0
BITMAP
24
38
00
3c
4c
d8
d8
fc
ENDCHAR
STARTCHAR adiaeresis
ENCODING 228
SWIDTH 596 0
DWIDTH 6 0
BBX 6 8 0 0
BITMAP
14
14
00
3c
4c
d8
d8
fc
ENDCHAR
STARTCHAR lacute
ENCODING 229
SWIDTH 327 0
DWIDTH 3 0
BBX 5 11 0 0
BITMAP
18
30
00
70
30
60
60
60
c0
c0
c0
ENDCHAR
STARTCHAR cacute
ENCODING 230
SWIDTH 456 0
DWIDTH 5 0
BBX 5 8 0 0
BITMAP
18
30
00
38
48
c0
c0
f0
ENDCHAR
STARTCHAR ccedilla
ENCODING 231
SWIDTH 456 0
DWIDTH 5 0
BBX 5 7 0 -2
BITMAP
38
48
c0
c0
f0
40
c0
ENDCHAR
STARTCHAR ccaron
ENCODING 232
SWIDTH 456 0
DWIDTH 5 0
BBX 5 8 0 0
BITMAP
68
30
00
38
48
c0
c0
f0
ENDCHAR
STARTCHAR eacute
ENCODING 233
SWIDTH 476 0
DWIDTH 5 0
BBX 5 8 0 0
BITMAP
18
30
00
30
58
f0
c0
f0
ENDCHAR
STARTCHAR eogonek
ENCODING 234
SWIDTH 476 0
DWIDTH 5 0
BBX 5 7 0 -2
BITMAP
30
58
f0
c0
f0
20
30
ENDCHAR
STARTCHAR ediaeresis
ENCODING 235
SWIDTH 476 0
DWIDTH 5 0
BBX 5 8 0 0
BITMAP
28
28
00
30
58
f0
c0
f0
ENDCHAR
STARTCHAR ecaron
ENCODING 236
SWIDTH 476 0
DWIDTH 5 0
BBX 5 8 0 0
BITMAP
68
30
00
30
58
f0
c0
f0
ENDCHAR
STARTCHAR iacute
ENCODING 237
SWIDTH 339 0
DWIDTH 3 0
BBX 4 8 0 0
BITMAP
30
60
00
e0
60
c0
c0
c0
ENDCHAR
STARTCHAR icircumflex
ENCODING 238
SWIDTH 339 0
DWIDTH 3 0
BBX 4 8 0 0
BITMAP
60
b0
00
e0
60
c0
c0
c0
ENDCHAR
STARTCHAR dcaron
ENCODING 239
SWIDTH 960 0
DWIDTH 10 0
BBX 11 9 0 0
BITMAP
0060
0e40
0680
0c00
3c00
4c00
d800
d800
fc00
ENDCHAR
STARTCHAR dstroke
ENCODING 240
SWIDTH 768 0
DWIDTH 8 0
BBX 9 8 0 0
BITMAP
0600
3f80
0c00
3c00
4c00
d800
d800
fc00
ENDCHAR
STARTCHAR nacute
ENCODING 241
SWIDTH 635 0
DWIDTH 7 0
BBX 6 8 0 0
BITMAP
18
30
00
f8
6c
6c
d8
dc
ENDCHAR
STARTCHAR ncaron
ENCODING 242
SWIDTH 635 0
DWIDTH 7 0
BBX 6 8 0 0
BITMAP
68
30
00
f8
6c
6c
d8
dc
ENDCHAR
STARTCHAR oacute
ENCODING 243
SWIDTH 562 0
DWIDTH 6 0
BBX 6 8 0 0
BITMAP
0c
18
00
38
58
d8
d0
e0
ENDCHAR
STARTCHAR ocircumflex
ENCODING 244
SWIDTH 562 0
DWIDTH 6 0
BBX 6 8 0 0
BITMAP
18
2c
00
38
58
d8
d0
e0
ENDCHAR
STARTCHAR odoubleacute
ENCODING 245
SWIDTH 562 0
DWIDTH 6 0
BBX 5 8 0 0
BITMAP
28
50
00
38
58
d8
d0
e0
ENDCHAR
STARTCHAR odiaeresis
ENCODING 246
SWIDTH 562 0
DWIDTH 6 0
BBX 5 8 0 0
BITMAP
28
28
00
38
58
d8
d0
e0
ENDCHAR
STARTCHAR division
ENCODING 247
SWIDTH 600 0
DWIDTH 6 0
BBX 5 5 0 0
BITMAP
20
00
f8
00
20
ENDCHAR
STARTCHAR rcaron
ENCODING 248
SWIDTH 440 0
DWIDTH 5 0
BBX 5 8 0 0
BITMAP
68
30
00
e8
78
60
c0
c0
ENDCHAR
STARTCHAR uring
ENCODING 249
SWIDTH 634 0
DWIDTH 7 0
BBX 6 9 0 0
BITMAP
20
50
20
00
ec
6c
d8
d8
fc
ENDCHAR
STARTCHAR uacute
ENCODING 250
SWIDTH 634 0
DWIDTH 7 0
BBX 6 8 0 0
BITMAP
0c
18
00
ec
6c
d8
d8
fc
ENDCHAR
STARTCHAR udoubleacute
ENCODING 251
SWIDTH 634 0
DWIDTH 7 0
BBX 6 8 0 0
BITMAP
28
50
00
ec
6c
d8
d8
fc
ENDCHAR
STARTCHAR udiaeresis
ENCODING 252
SWIDTH 634 0
DWIDTH 7 0
BBX 6 8 0 0
BITMAP
14
14
00
ec
6c
d8
d8
fc
ENDCHAR
STARTCHAR yacute
ENCODING 253
SWIDTH 489 0
DWIDTH 5 0
BBX 7 10 -2 -2
BITMAP
06
0c
00
36
36
34
38
30
a0
c0
ENDCHAR
STARTCHAR tcedilla
ENCODING 254
SWIDTH 359 0
DWIDTH 4 0
BBX 4 9 0 -2
BITMAP
20
60
f0
60
c0
c0
e0
20
60
ENDCHAR
STARTCHAR abovedot
ENCODING 255
SWIDTH 402 0
DWIDTH 4 0
BBX 1 2 1 6
BITMAP
80
80
ENDCHAR
ENDFONT
